<?xml version="1.0"?>
<svg width="2000" height="2000" xmlns="http://www.w3.org/2000/svg" xmlns:svg="http://www.w3.org/2000/svg" stroke="null" style="vector-effect: non-scaling-stroke;">
 <g stroke="null">
  <title stroke="null">Sunburst</title>
  <path id="svg_2" fill="url(#svg_61)" d="m83,80l1719,0a1719,1719 0 0 1 -14.706299,224.374512l-1704.293701,-224.374512z"/>
  <path stroke="null" id="svg_3" fill="url(#svg_62)" d="m83,80l1660.426514,444.909912a1719,1719 0 0 1 -72.277588,212.922913l-1588.148926,-657.832825z"/>
  <path stroke="null" id="svg_4" fill="url(#svg_69)" d="m83,80l1488.697632,859.5a1719,1719 0 0 1 -124.923218,186.960938l-1363.774414,-1046.460938z"/>
  <path stroke="null" id="svg_5" fill="url(#svg_64)" d="m83,80l1215.516602,1215.516602a1719,1719 0 0 1 -169.055664,148.257813l-1046.460938,-1363.774414z"/>
  <path stroke="null" id="svg_6" fill="url(#svg_67)" d="m83,80l859.5,1488.697632a1719,1719 0 0 1 -201.667175,99.451294l-657.832825,-1588.148926z"/>
  <path stroke="null" id="svg_7" fill="url(#svg_68)" d="m83,79l444.909912,1660.426514a1719,1719 0 0 1 -220.5354,43.867188l-224.374512,-1704.293701z"/>
  <path stroke="null" id="svg_8" fill="#ffffff" d="m83,79l0,1719a1719,1719 0 0 1 -224.374527,-14.706299l224.374527,-1704.293701z"/>
  <path stroke="null" id="svg_9" fill="rgb(252,176,105)" d="m83,79l-444.909943,1660.426514a1719,1719 0 0 1 -212.922882,-72.277588l657.832825,-1588.148926z"/>
  <path stroke="null" id="svg_10" fill="rgb(252,176,105)" d="m83,79l-859.5,1488.697632a1719,1719 0 0 1 -186.960876,-124.923218l1046.460876,-1363.774414z"/>
  <path stroke="null" id="svg_11" fill="rgb(252,176,105)" d="m83,79l-1215.516602,1215.516602a1719,1719 0 0 1 -148.257813,-169.055664l1363.774414,-1046.460938z"/>
  <path stroke="null" id="svg_12" fill="rgb(252,176,105)" d="m83,79l-1488.697632,859.5a1719,1719 0 0 1 -99.451294,-201.667175l1588.148926,-657.832825z"/>
  <path stroke="null" id="svg_13" fill="rgb(252,176,105)" d="m83,79l-1660.426514,444.909912a1719,1719 0 0 1 -43.867188,-220.5354l1704.293701,-224.374512z"/>
  <path stroke="null" id="svg_14" fill="rgb(252,176,105)" d="m83,79l-1719,0a1719,1719 0 0 1 14.706299,-224.374527l1704.293701,224.374527z"/>
  <path stroke="null" id="svg_15" fill="rgb(252,176,105)" d="m83,79l-1660.426514,-444.909943a1719,1719 0 0 1 72.277588,-212.922882l1588.148926,657.832825z"/>
  <path stroke="null" id="svg_16" fill="rgb(252,176,105)" d="m83,79l-1488.697632,-859.5a1719,1719 0 0 1 124.923218,-186.960876l1363.774414,1046.460876z"/>
  <path stroke="null" id="svg_17" fill="rgb(252,176,105)" d="m83,79l-1215.516602,-1215.516602a1719,1719 0 0 1 169.055725,-148.257813l1046.460876,1363.774414z"/>
  <path stroke="null" id="svg_18" fill="rgb(252,176,105)" d="m83,79l-859.5,-1488.697632a1719,1719 0 0 1 201.667175,-99.451294l657.832825,1588.148926z"/>
  <path stroke="null" style="vector-effect: non-scaling-stroke;" id="svg_19" fill="rgb(252,176,105)" d="m83,79l-444.909943,-1660.426514a1719,1719 0 0 1 220.535416,-43.867188l224.374527,1704.293701z"/>
  <path stroke="null" id="svg_20" fill="url(#svg_49)" d="m83,79l0,-1719a1719,1719 0 0 1 224.374512,14.706299l-224.374512,1704.293701z"/>
  <path stroke="null" style="vector-effect: non-scaling-stroke;" id="svg_21" fill="url(#svg_49)" d="m83,81l444.909912,-1660.426514a1719,1719 0 0 1 212.922913,72.277588l-657.832825,1588.148926z"/>
  <path stroke="null" id="svg_22" fill="url(#svg_49)" d="m83,80l859.5,-1488.697632a1719,1719 0 0 1 186.960938,124.923218l-1046.460938,1363.774414z"/>
  <path stroke="null" id="svg_23" fill="url(#svg_49)" d="m83,80l1215.516602,-1215.516602a1719,1719 0 0 1 148.257813,169.055725l-1363.774414,1046.460876z"/>
  <path stroke="null" style="vector-effect: non-scaling-stroke;" id="svg_24" fill="url(#svg_49)" d="m83,80l1488.697632,-859.5a1719,1719 0 0 1 99.451294,201.667175l-1588.148926,657.832825z"/>
  <path stroke="null" style="vector-effect: non-scaling-stroke;" id="svg_25" fill="url(#svg_49)" d="m82,80l1660.426514,-444.909943a1719,1719 0 0 1 43.867188,220.535416l-1704.293701,224.374527z"/>
 </g>
 <defs style="vector-effect: non-scaling-stroke;" stroke="null">
  <linearGradient style="vector-effect: non-scaling-stroke;" stroke="null" y2="0" x2="1" y1="0" x1="0" id="svg_49">
   <stop style="vector-effect: non-scaling-stroke;" stroke="null" offset="0" stop-color="#F69338"/>
   <stop style="vector-effect: non-scaling-stroke;" stroke="null" offset="0.589111" stop-opacity="0.996094" stop-color="#ffffff"/>
   <stop style="vector-effect: non-scaling-stroke;" stroke="null" offset="0.596924" stop-opacity="0" stop-color="0"/>
  </linearGradient>
  <linearGradient style="vector-effect: non-scaling-stroke;" stroke="null" y2="0.117188" x2="1" y1="0.125" x1="0.178955" spreadMethod="pad" id="svg_59">
   <stop style="vector-effect: non-scaling-stroke;" stroke="null" offset="0" stop-opacity="0.992188" stop-color="#F69338"/>
   <stop offset="0.175049" stop-opacity="0.984375" stop-color="#f4b47c"/>
   <stop style="vector-effect: non-scaling-stroke;" stroke="null" offset="1" stop-opacity="0.992188" stop-color="#ffffff"/>
  </linearGradient>
  <linearGradient style="vector-effect: non-scaling-stroke;" stroke="null" y2="0.117188" x2="1" y1="0.117188" x1="0" spreadMethod="pad" id="svg_60">
   <stop style="vector-effect: non-scaling-stroke;" stroke="null" offset="0" stop-opacity="0.992188" stop-color="#F69338"/>
   <stop offset="0.143799" stop-opacity="0.984375" stop-color="#f4b47c"/>
   <stop style="vector-effect: non-scaling-stroke;" stroke="null" offset="1" stop-opacity="0.992188" stop-color="#ffffff"/>
  </linearGradient>
  <linearGradient style="vector-effect: non-scaling-stroke;" stroke="null" y2="0.117188" x2="1" y1="0.117188" x1="0" spreadMethod="pad" id="svg_61">
   <stop style="vector-effect: non-scaling-stroke;" stroke="null" offset="0" stop-opacity="0.992188" stop-color="#F69338"/>
   <stop offset="0.143799" stop-opacity="0.980469" stop-color="#f4b47c"/>
   <stop style="vector-effect: non-scaling-stroke;" stroke="null" offset="1" stop-opacity="0.992188" stop-color="#ffffff"/>
  </linearGradient>
  <linearGradient style="vector-effect: non-scaling-stroke;" stroke="null" y2="0.710938" x2="1" y1="0" x1="0" spreadMethod="pad" id="svg_62">
   <stop style="vector-effect: non-scaling-stroke;" stroke="null" offset="0" stop-opacity="0.992188" stop-color="#F69338"/>
   <stop offset="0.198486" stop-opacity="0.988281" stop-color="#f4b47c"/>
   <stop style="vector-effect: non-scaling-stroke;" stroke="null" offset="1" stop-opacity="0.992188" stop-color="#ffffff"/>
  </linearGradient>
  <linearGradient style="vector-effect: non-scaling-stroke;" stroke="null" y2="1" x2="0.971924" y1="0" x1="0" spreadMethod="pad" id="svg_63">
   <stop style="vector-effect: non-scaling-stroke;" stroke="null" offset="0" stop-opacity="0.992188" stop-color="#F69338"/>
   <stop offset="0.253174" stop-opacity="0.988281" stop-color="#f4b47c"/>
   <stop style="vector-effect: non-scaling-stroke;" stroke="null" offset="0.846924" stop-opacity="0.992188" stop-color="#ffffff"/>
  </linearGradient>
  <linearGradient style="vector-effect: non-scaling-stroke;" stroke="null" y2="1" x2="0.971924" y1="0" x1="0" spreadMethod="pad" id="svg_64">
   <stop style="vector-effect: non-scaling-stroke;" stroke="null" offset="0" stop-opacity="0.992188" stop-color="#F69338"/>
   <stop offset="0.175049" stop-opacity="0.988281" stop-color="#f4b47c"/>
   <stop style="vector-effect: non-scaling-stroke;" stroke="null" offset="0.75708" stop-opacity="0.992188" stop-color="#ffffff"/>
  </linearGradient>
  <linearGradient style="vector-effect: non-scaling-stroke;" stroke="null" y2="1" x2="0.971924" y1="0" x1="0" spreadMethod="pad" id="svg_65">
   <stop style="vector-effect: non-scaling-stroke;" stroke="null" offset="0" stop-opacity="0.992188" stop-color="#F69338"/>
   <stop offset="0.139893" stop-opacity="0.988281" stop-color="#f4b47c"/>
   <stop style="vector-effect: non-scaling-stroke;" stroke="null" offset="0.682861" stop-opacity="0.992188" stop-color="#ffffff"/>
  </linearGradient>
  <linearGradient style="vector-effect: non-scaling-stroke;" stroke="null" y2="1" x2="0.971924" y1="0" x1="0" spreadMethod="pad" id="svg_66">
   <stop style="vector-effect: non-scaling-stroke;" stroke="null" offset="0" stop-opacity="0.992188" stop-color="#F69338"/>
   <stop offset="0.139893" stop-opacity="0.988281" stop-color="#f4b47c"/>
   <stop style="vector-effect: non-scaling-stroke;" stroke="null" offset="0.991455" stop-opacity="0.992188" stop-color="#ffffff"/>
  </linearGradient>
  <linearGradient style="vector-effect: non-scaling-stroke;" stroke="null" y2="1" x2="0.971924" y1="0" x1="0" spreadMethod="pad" id="svg_67">
   <stop style="vector-effect: non-scaling-stroke;" stroke="null" offset="0" stop-opacity="0.992188" stop-color="#F69338"/>
   <stop offset="0.139893" stop-opacity="0.988281" stop-color="#f4b47c"/>
   <stop style="vector-effect: non-scaling-stroke;" stroke="null" offset="0.811768" stop-opacity="0.992188" stop-color="#ffffff"/>
  </linearGradient>
  <linearGradient style="vector-effect: non-scaling-stroke;" stroke="null" y2="1" x2="0.971924" y1="0" x1="0" spreadMethod="pad" id="svg_68">
   <stop style="vector-effect: non-scaling-stroke;" stroke="null" offset="0" stop-opacity="0.992188" stop-color="#F69338"/>
   <stop offset="0.155518" stop-opacity="0.988281" stop-color="#f4b47c"/>
   <stop style="vector-effect: non-scaling-stroke;" stroke="null" offset="0.721924" stop-opacity="0.992188" stop-color="#ffffff"/>
  </linearGradient>
  <linearGradient style="vector-effect: non-scaling-stroke;" stroke="null" y2="1" x2="0.971924" y1="0" x1="0" spreadMethod="pad" id="svg_69">
   <stop style="vector-effect: non-scaling-stroke;" stroke="null" offset="0" stop-opacity="0.992188" stop-color="#F69338"/>
   <stop offset="0.159424" stop-opacity="0.988281" stop-color="#f4b47c"/>
   <stop style="vector-effect: non-scaling-stroke;" stroke="null" offset="0.846924" stop-opacity="0.992188" stop-color="#ffffff"/>
  </linearGradient>
 </defs>
</svg>
